<svg xmlns="http://www.w3.org/2000/svg" viewBox="0 0 768 768"><defs><style>.cls-1{fill:#fff;}</style></defs><title>Asset 4</title><g id="Layer_2" data-name="Layer 2"><g id="Layer_2-2" data-name="Layer 2"><rect width="768" height="768"/><path class="cls-1" d="M522.61,289.8h0S616.35,439.89,544.89,513L428,628.05h0s-11.63,9.68-35.51,12.15c-26.67,2.76-175.82,0-175.82,0h0a21.46,21.46,0,0,1-17-14.74c-3.12-9.83,0-20.59,7.39-27.79Z"/><path class="cls-1" d="M246.34,480h0s-94.65-149.52-23.63-223L338.89,141.21h0s11.57-9.74,35.44-12.36c26.65-2.92,175.81-1.06,175.81-1.06h0a21.49,21.49,0,0,1,17.69,17,27.36,27.36,0,0,1-7.68,25.34Z"/></g></g></svg>